<svg viewBox="0 0 450.42 225.82" xmlns="http://www.w3.org/2000/svg" xmlns:xlink="http://www.w3.org/1999/xlink"><linearGradient id="a" gradientUnits="userSpaceOnUse" x1="225.21" x2="225.21" y1="5.62" y2="220.62"><stop offset=".07" stop-color="#87c7cb"/><stop offset=".26" stop-color="#1a9698"/><stop offset=".81" stop-color="#105452"/></linearGradient><path d="m253.61 219.32c107.86-6.81 191.19-51.85 191.19-106.41 0-59.23-98.21-107.24-219.4-107.3a434.27 434.27 0 0 0 -76.5 6.66c-83.66 15.15-143.29 54.49-143.29 100.64 0 41.07 47.23 76.75 116.6 94.78 30.84 8 66 12.48 103.38 12.48q14.24 0 28.02-.85z" fill="url(#a)"/><ellipse cx="225.59" cy="112.89" fill="#00aca7" rx="210.92" ry="98.01"/><path d="m442.06 117.3h-20.32c-2.4 0-7.38 0-8.41-.53-.27-.25-1.08-1.42-2.88-6.1-4.91-12.83-10-26.09-27.54-26.08a32.17 32.17 0 0 0 -17.56 5 8 8 0 0 0 -4.68-1.59h-15.28a8 8 0 0 0 -6.3 3.15 8 8 0 0 0 -6.34-3.15h-23.56c-8 0-13.77 2.3-17.28 6.84l-.41-1.27a8 8 0 0 0 -7.62-5.56h-5.8l-9.39-24.92a8 8 0 0 0 -7.48-5.09h-15.7a8 8 0 0 0 -7.77 9.86 17.61 17.61 0 0 0 -10.44-3.5 15.45 15.45 0 0 0 -15.5 17.58 17.89 17.89 0 0 0 6.54 11.61 9 9 0 0 0 -.35 1.86 24.38 24.38 0 0 0 -17.85-7.36h-6.62l-1.57-4.33a8 8 0 0 0 -7.52-5.27h-14.83a8 8 0 0 0 -7.54 10.67l1.41 4a8 8 0 0 0 -7.39-5h-15.7a8 8 0 0 0 -6.55 3.4 7.91 7.91 0 0 0 -.43.87 7.93 7.93 0 0 0 -7-4.28h-12.9c-2.5-6.37-6.11-16.76-6.15-16.87-6.22-17.4-19.74-19.39-29.35-19.39h-37.07c-13.29 9-23.93 19.07-31.42 29.94h31.93l22.05 60.21a8 8 0 0 0 7.51 5.23h22.06a8 8 0 0 0 7.51-10.75s-4-11.06-7.31-20c5.7-.63 11.18-1.54 15-5 1.88 5.21 3.7 10.31 5.77 16.36 6.92 20.16 24.81 20.16 32.44 20.16 5.54 0 12.74-1.58 15.83-3.41 4.16 1.95 10.41 3.41 19.88 3.41 9.87 0 17.16-2.84 21.65-8.44a19.41 19.41 0 0 0 2.63-4.41c3.34 6.72 8.54 12.85 25.33 12.85 7.55 0 12.77-1.06 16.37-2.62 3.56 1.54 8.63 2.63 15.91 2.63s12.12-1.36 15.54-3.09c3.54 1.7 8.63 3.09 15.87 3.09s12.34-.69 16.14-2.13c4.44 1.78 9.59 2.14 14.68 2.14a32.85 32.85 0 0 0 12-1.88 46.71 46.71 0 0 0 14.48 1.86 26.33 26.33 0 0 0 8.48-1.28 7.89 7.89 0 0 0 2.72.54h18.4a8 8 0 0 0 8-8 7.9 7.9 0 0 0 -.43-2.57l-.5-1.55c5.2 6.55 13.1 12.07 25.29 12.08h20.84a62.9 62.9 0 0 0 6.52-27.59c.01-.77-.01-1.55-.04-2.33z" fill="#008a86"/><path d="m358.52 171v-3.5c0-7.43-4-10.6-13.35-10.6h-10.17c-5.51 0-9 1-11.19 3.24a8.06 8.06 0 0 0 -.72.84c-1.86-2.51-5-3.83-9.34-3.83h-69.2v8.91l-7.7-8.91h-17.35v15.27l-9.15-15.27h-14.22l-9.78 16.57v-3.2h1v-13.33h-34.35v16.21h-11.18v-16.21h-15.6v2.36c-2.8-2.13-6.94-2.6-12.2-2.6h-8.57c-3.62 0-14.63 0-14.63 12v6.51c0 12 11 12 14.63 12h11.75c4.17 0 7-.89 9-2.26v2h70l2.13-3.85h9.95l2.27 3.85h24.55v-8.91l7.7 8.91h60.4v-5.66h6.14v5.66h15.6v-1.83c3.09 2.07 7.35 2.07 9.73 2.07h8.83c5.48 0 8.95-.28 11.58-1.74 4.43-2.46 4.43-7.4 4.43-9.25a13.35 13.35 0 0 0 -.99-5.45z" fill="#008a86" stroke="#008a86" stroke-linejoin="round" stroke-width="5"/><path d="m54.78 55.4h-14.7-.33c-10.55 8.15-18.94 17-24.75 26.39h10.53c6.86-9.53 16.8-18.41 29.25-26.39z" fill="#016164"/><path d="m442.27 124.67-.13-3.8h-6.32c-1.59 9.21-5.93 18.06-12.63 26.38h10.13a64.68 64.68 0 0 0 10.06-22.1z" fill="#125658"/><path d="m358.52 167.21v-3.5c0-7.43-4-10.6-13.35-10.6h-10.17c-5.51 0-9 1-11.19 3.24a8.06 8.06 0 0 0 -.72.84c-1.86-2.51-5-3.83-9.34-3.83h-69.2v8.91l-7.7-8.91h-17.35v15.27l-9.15-15.27h-14.22l-9.78 16.57v-3.2h1v-13.38h-34.35v16.21h-11.18v-16.21h-15.6v2.36c-2.8-2.13-6.94-2.6-12.2-2.6h-8.57c-3.62 0-14.63 0-14.63 12v6.51c0 12 11 12 14.63 12h11.75c4.17 0 7-.89 9-2.26v2h70l2.13-3.85h9.95l2.27 3.85h24.55v-8.91l7.7 8.91h60.4v-5.56h6.14v5.66h15.6v-1.83c3.09 2.07 7.35 2.07 9.73 2.07h8.83c5.48 0 8.95-.28 11.58-1.74 4.43-2.46 4.43-7.4 4.43-9.25a13.35 13.35 0 0 0 -.99-5.5zm-244 2.43v.15h-7.91c0-.07 0-.13 0-.21v-2.35c0-.08 0-.13 0-.2h7.61v2.62z"/><g fill="#fff"><path d="m95 165.15c0-6.39 3.91-7.89 10.47-7.89h8.53c10.38 0 11.72 2 11.66 8.22h-7.29v-.6c0-1.57-1.25-2-3.42-2h-7.95c-3.84 0-4.56 1.66-4.56 4.37v2.35c0 3.16.72 4.37 4.17 4.37h7.78c3.28 0 4.27-.3 4.27-3h7.34v2c0 3.67-1.44 6.57-8.77 6.57h-11.77c-6.57.01-10.46-1.54-10.46-7.88z"/><path d="m130.38 157.5h7.29v16.21h16.38v5.6h-23.67z"/><path d="m157.14 157.5h26v5.06h-18.71v3.49h17.73v4.52h-17.73v3.49h19.14v5.24h-26.43z"/><path d="m198.51 157.5h9.49l13.07 21.81h-8.07l-2.27-3.86h-14.82l-2.13 3.86h-8.14zm.13 13.25h9.36l-4.73-8.19z"/><path d="m223.66 157.5h11.34l13.69 15.84h.07v-15.84h7.24v21.81h-11.3l-13.7-15.84h-.07v15.85h-7.29z"/><path d="m260.92 157.5h26v5.06h-18.71v3.49h17.73v4.52h-17.73v3.49h19.14v5.24h-26.43z"/><path d="m291.75 157.5h22c5.61 0 7.12 2.56 7.12 6.48v1.39c0 2.92-.72 4.64-4.07 5.36v.06c2.17.36 4 1.24 4 4.82v3.71h-7.29v-2.62c0-2.29-.72-3-3-3h-11.51v5.66h-7.29zm7.25 10.73h12c2 0 2.69-.72 2.69-2.29v-.72c0-1.93-1.05-2.29-3.35-2.29h-11.34z"/><path d="m325.38 172.17h7.29c0 2.32 1.05 2.5 3.15 2.5h8.93c1.54 0 3.12-.15 3.12-1.84 0-1.9-.85-2-10.24-2-11 0-12.21-1.21-12.21-6.57 0-3.94.39-7 9.59-7h10.18c8.41 0 9.19 2.62 9.19 6.45v.69h-7.29c0-1.6-.2-2.26-3.55-2.26h-8.08c-1.64 0-2.76.51-2.76 1.69 0 1.9.89 2 8.7 1.93 11.33 0 14 .6 14 7 0 5.87-2.17 6.84-11.85 6.84h-8.83c-6.63 0-9.29-1.15-9.29-5.87z"/></g><path d="m225.21 0c-126.29 0-225.21 49.6-225.21 112.91s98.92 112.91 225.21 112.91 225.21-49.6 225.21-112.91-98.93-112.91-225.21-112.91zm0 220.21c-121.28 0-219.59-48-219.59-107.3s98.31-107.3 219.59-107.3 219.59 48 219.59 107.3-98.31 107.3-219.59 107.3z"/><path d="m450.42 112.91c0-.78 0-1.57-.06-2.35h-25.62c-2.4 0-7.38 0-8.41-.53-.27-.25-1.08-1.42-2.88-6.1-4.91-12.83-10-26.09-27.54-26.08a32.17 32.17 0 0 0 -17.56 5 8 8 0 0 0 -4.68-1.56h-15.27a8 8 0 0 0 -6.3 3.15 8 8 0 0 0 -6.34-3.15h-23.57c-8 0-13.77 2.3-17.28 6.84l-.41-1.27a8 8 0 0 0 -7.62-5.56h-5.8l-9.38-24.89a8 8 0 0 0 -7.49-5.18h-15.7a8 8 0 0 0 -7.77 9.86 17.61 17.61 0 0 0 -10.44-3.5 15.45 15.45 0 0 0 -15.5 17.62 17.89 17.89 0 0 0 6.54 11.61 9 9 0 0 0 -.35 1.86 24.38 24.38 0 0 0 -17.85-7.36h-6.62l-1.52-4.32a8 8 0 0 0 -7.52-5.27h-14.88a8 8 0 0 0 -7.54 10.67l1.41 4a8 8 0 0 0 -7.39-5h-15.7a8 8 0 0 0 -6.55 3.4 7.87 7.87 0 0 0 -.43.87 7.93 7.93 0 0 0 -7-4.28h-12.9c-2.5-6.37-6.11-16.76-6.15-16.87-6.22-17.41-19.73-19.41-29.35-19.41h-37.07c-13.29 9.01-23.93 19.08-31.41 29.95h31.92l22.05 60.19a8 8 0 0 0 7.51 5.25h14.84a8 8 0 0 0 7.51-10.75l-7.24-19.75h3.66c7.14 0 13.46-2.29 18.06-6.41 1.88 5.21 4.14 11.54 6.22 17.59 6.9 20.09 24.79 20.09 32.43 20.09a24.71 24.71 0 0 0 12.83-3.41c4.16 1.95 10.41 3.41 19.88 3.41 9.87 0 17.16-2.84 21.65-8.44a19.41 19.41 0 0 0 2.63-4.41c3.32 6.77 9.48 12.86 26.32 12.86 7.55 0 12.77-1.06 16.37-2.62 3.56 1.54 8.63 2.63 15.91 2.63s12.12-1.36 15.54-3.09c3.54 1.7 8.63 3.09 15.87 3.09s12.34-.69 16.14-2.13c4.44 1.78 9.59 2.14 14.68 2.14a32.85 32.85 0 0 0 12-1.88 46.71 46.71 0 0 0 14.48 1.88 26.34 26.34 0 0 0 8.48-1.28 7.89 7.89 0 0 0 2.72.54h14.4a8 8 0 0 0 8-8 7.91 7.91 0 0 0 -.38-2.56l-4.84-14.06a8.31 8.31 0 0 1 -.51-2.75 5.79 5.79 0 0 1 .23-1.63c.4-1.22 1.45-1.66 1.92-.29 3 8.94 10.6 29.25 34 29.25h26.14a62.9 62.9 0 0 0 6.48-27.61z"/><path d="m26.62 67.06h23.38l24 65.44h14.84l-11.18-30.5h15.11c13.52 0 19.19-10.47 16.57-17s-6.54-17.89-6.54-17.89c-3.92-10.95-10.9-14-21.8-14h-38.14a124.28 124.28 0 0 0 -16.24 13.95zm54.37 0c4.8 0 6.38.88 7.86 4.36l5.23 13.52c.92 2.47-.88 3.06-2.62 3.06h-18.91l-7.67-20.94z" fill="#fff"/><path d="m444.49 118.57h-19.75c-12.65 0-14.44-.5-18.76-11.78-5.33-13.92-8.72-20.94-20.06-20.94s-17.88 7-19.63 10l-2.61-6.56h-15.28s5.67 14 8.29 21 1.74 8.29-2.62 8.29-6.54 1.75-10-7.42-8.29-21.83-8.29-21.83h-23.59c-13.52 0-13.53 7.87-11.77 14.41 1 3.69 3.36 8.77 5.63 13.52-2.52 1.91-5.39 1.31-10 1.31-5.23 0-10.24-1.82-11.78-6.11l-4-9.75h10.9l-4.29-13.38h-11.33l-11.34-30.1h-15.7l11.34 30.1h-8.29l5.23 13.52h8.73s1.37 4.33 3.55 9.57-.94 6.13-4.44 6.13-9.1-.4-11.34-6.11c-3.08-7.83-9.15-23.12-9.15-23.12h-15.26s5.41 13 9.16 22.25c2.84 7-1.75 7.71-5.24 7.71s-6.8-.78-7.85-3.78c-1.19-3.37-3.32-8.6-5.67-14.83-2.29-6.07-7.41-11.34-16.13-11.34h-12.23l-3.49-9.59h-14.83s9.21 26.06 11.4 31.72.37 7.1-4 7.1-10.47 0-12.64-6.11-8.29-23.12-8.29-23.12h-15.7s6.46 17.88 8.45 22.77c3.22 7.9-10.6 9.55-13.26 2.09-3-8.47-9.15-24.87-9.15-24.87h-15.26s5.67 15.26 10.47 29.23 16.14 14.69 24.86 14.69 12.65-5.52 12.65-5.52 2.33 5.52 20.06 5.52c21.37 0 18.32-15.56 17.45-19.48a111.44 111.44 0 0 0 -3.49-10.91h4.36c2.62 0 4.44.44 6.55 5.24 0 0 2.89 7.17 5.23 13.53 2.19 6 4.8 11.63 20.5 11.63s16.14-4.65 16.14-4.65 1.75 4.66 16.14 4.66c13 0 15.28-5.09 15.28-5.09s3.35 5.09 16.14 5.09c12.48 0 15.33-2.26 16-3.48 3.14 3 8.67 3.48 14.87 3.48 4.88 0 8.64-.62 11.63-2.67 2.8 1.59 7.25 2.67 14.84 2.67 7.86 0 9.89-3.34 9.89-3.34l1.31 2.6h14.4s-1.74-5.21-4.8-13.94 1.75-15.26 6.11-17 7.42-2.62 10 5.24 7.77 25.71 27 25.72h23.38a56.13 56.13 0 0 0 3.37-13.97zm-116.59 0c-5.23 0-6.86.44-8.72-4.37 0 0-2.07-5.59-3-8.19-.87-2.43-.06-3.14 3.43-3.15h6.11s2.83 9.09 5.31 15.12a8.12 8.12 0 0 1 -3.13.58z" fill="#fff"/><path d="m232.45 82.86a7.47 7.47 0 0 0 7.55-8.64 10.09 10.09 0 0 0 -9.72-8.64 7.46 7.46 0 0 0 -7.55 8.64 10.08 10.08 0 0 0 9.72 8.64z" fill="#fff"/></svg>